<svg xmlns="http://www.w3.org/2000/svg"  viewBox="0 0 96 96" width="96px" height="96px" baseProfile="basic"><path fill="#0fd2ff" d="M48,86.003c-18.563,0-37.577-13.037-38-37.954c0-0.034,0-0.068,0-0.102	C10.426,23.039,29.435,10.003,47.992,10c0.003,0,0.006,0,0.008,0c8.45,0,16.682,2.844,23.808,8.225	c1.012,0.764,1.403,2.044,1.084,3.195c1.112-0.441,2.426-0.189,3.294,0.733c6.247,6.642,9.641,15.562,9.814,25.795	c0,0.034,0,0.068,0,0.102C85.574,72.967,66.562,86.003,48,86.003z M16,47.999c0.398,21.987,16.861,32.004,32,32.004	c15.137,0,31.599-10.016,32-32.003c-0.158-8.695-2.988-16.21-8.186-21.736c-0.744-0.792-0.976-1.881-0.706-2.857	c-0.941,0.375-2.05,0.26-2.916-0.394C62.116,18.425,55.134,16,48,16c-0.003,0-0.004,0-0.006,0	C32.859,16.002,16.401,26.019,16,47.999z" opacity=".3"/><path fill="#0fd2ff" d="M48,85.003c-18.075,0-36.589-12.699-37-36.971C11.414,23.701,29.924,11.003,47.993,11	c0.002,0,0.005,0,0.007,0c8.23,0,16.254,2.774,23.205,8.023c0.882,0.666,1.057,1.92,0.391,2.801c-0.664,0.88-1.92,1.058-2.801,0.391	C62.544,17.495,55.353,15,48,15c-0.003,0-0.004,0-0.007,0C32.374,15.002,15.387,25.341,15,48.033	c0.384,22.631,17.376,32.97,33,32.97c15.622,0,32.613-10.338,33-33.037c-0.152-8.901-3.076-16.666-8.457-22.387	c-0.757-0.805-0.718-2.07,0.087-2.827c0.803-0.755,2.069-0.718,2.827,0.087C81.53,29.296,84.83,37.985,85,47.966	C84.586,72.304,66.073,85.003,48,85.003z" opacity=".3"/><path fill="#0fd2ff" d="M56.759,70.686c-2.124,0-3.949-1.206-4.664-1.677c-0.363-0.24-1.046-0.686-1.9-1.244	c-3.79-2.476-7.595-4.968-8.852-5.867l-0.179-0.127c-1.185-0.841-3.166-2.248-3.361-4.727c-0.071-0.897,0.108-1.783,0.534-2.65	c-0.364,0.244-0.628,0.421-0.771,0.518c-2.803,1.904-5.501,2.286-9.015,1.276c-2.186-0.627-4.306-1.36-5.324-1.711l-0.241-0.083	c-2.694-0.922-4.105-2.396-4.189-4.379c-0.135-3.182,3.473-4.769,4.658-5.291c11.094-4.881,24.95-10.673,32.223-13.692l0.243-0.101	c3.449-1.431,7.027-2.66,9.553-0.652c2.553,2.028,1.915,5.86,1.643,7.496c-0.204,1.227-0.525,3.316-0.917,5.864	c-0.919,5.977-2.178,14.162-3.267,20.018c-0.243,1.308-0.983,5.285-4.111,6.614C58.121,70.567,57.425,70.686,56.759,70.686z M44.147,56.523c0.171,0.128,0.351,0.255,0.489,0.354l0.195,0.139c1.26,0.9,5.882,3.92,8.645,5.725	C54.34,63.306,55.031,63.757,55.4,64c0.481,0.318,0.823,0.489,1.047,0.58c0.153-0.315,0.382-0.923,0.586-2.021	c1.071-5.763,2.321-13.895,3.234-19.833c0.397-2.58,0.723-4.695,0.93-5.937c0.103-0.616,0.152-1.083,0.173-1.43	c-0.61,0.151-1.594,0.467-3.15,1.113l-0.242,0.101c-6.922,2.873-19.825,8.266-30.589,12.977c0.858,0.281,1.837,0.589,2.818,0.872	c2.156,0.619,2.946,0.235,3.987-0.473c0.454-0.309,2.117-1.417,4.369-2.914c1.379-0.919,3.241-0.543,4.159,0.837	c0.203,0.305,0.343,0.633,0.422,0.97c2.374-2.531,5.59-5.913,8.535-8.723c1.196-1.144,3.097-1.098,4.241,0.1	c1.144,1.199,1.099,3.098-0.101,4.242c-3.459,3.3-7.37,7.488-9.706,9.99c-0.963,1.031-1.656,1.771-1.942,2.05	C44.164,56.508,44.155,56.516,44.147,56.523z" opacity=".3"/><path fill="#0fd2ff" d="M56.767,69.682c-1.837,0-3.482-1.086-4.12-1.508c-0.365-0.24-1.049-0.688-1.905-1.247	c-2.976-1.944-7.472-4.882-8.816-5.843l-0.182-0.129c-1.109-0.787-2.785-1.977-2.943-3.99c-0.107-1.357,0.523-2.717,1.876-4.04	c0.263-0.257,0.898-0.94,1.783-1.888c2.374-2.542,6.347-6.795,9.91-10.195c0.8-0.761,2.064-0.733,2.828,0.067	c0.763,0.799,0.732,2.065-0.066,2.828c-3.48,3.32-7.404,7.521-9.748,10.031c-0.947,1.014-1.629,1.742-1.91,2.017	c-0.479,0.469-0.627,0.752-0.67,0.86c0.177,0.282,0.871,0.775,1.256,1.048l0.192,0.137c1.276,0.913,5.91,3.94,8.679,5.749	c0.862,0.563,1.552,1.014,1.92,1.257c1.278,0.843,1.887,0.887,2.017,0.832c0.007-0.002,0.663-0.31,1.15-2.925	c1.074-5.779,2.326-13.919,3.24-19.864c0.396-2.574,0.721-4.685,0.927-5.925c0.288-1.731,0.199-2.466,0.134-2.729	c-0.386-0.034-1.485,0.082-4.481,1.325l-0.242,0.101C50.34,38.66,36.52,44.438,25.468,49.3c-0.317,0.14-0.581,0.268-0.801,0.384	l0.191,0.066c0.979,0.338,3.015,1.041,5.072,1.632c2.351,0.676,3.429,0.343,4.825-0.606c0.454-0.309,2.113-1.414,4.361-2.909	c0.922-0.611,2.163-0.361,2.772,0.558c0.612,0.919,0.362,2.161-0.558,2.773c-2.23,1.483-3.878,2.581-4.328,2.887	c-2.567,1.743-4.935,2.073-8.178,1.142c-2.159-0.62-4.263-1.347-5.273-1.696l-0.241-0.083c-2.268-0.776-3.452-1.946-3.517-3.476	c-0.095-2.24,2.272-3.546,4.062-4.333c11.086-4.877,24.936-10.667,32.204-13.684l0.243-0.101c3.872-1.606,6.653-2.296,8.547-0.792	c1.844,1.464,1.681,4.132,1.278,6.549c-0.204,1.229-0.526,3.323-0.919,5.876c-0.918,5.97-2.176,14.146-3.261,19.987	c-0.381,2.042-1.159,4.873-3.52,5.876C57.872,69.586,57.311,69.682,56.767,69.682z" opacity=".3"/><path fill="#0fd2ff" d="M48,84.003c-17.587,0-35.6-12.361-36-35.987C12.403,24.363,30.412,12.003,47.993,12	c0.002,0,0.005,0,0.007,0c8.011,0,15.826,2.704,22.603,7.821c0.44,0.333,0.528,0.96,0.195,1.4c-0.333,0.441-0.96,0.527-1.4,0.195	C62.972,16.565,55.572,14,48,14c-0.003,0-0.004,0-0.007,0C31.39,14.003,14.381,25.688,14,48.016	c0.378,22.301,17.391,33.987,34,33.987c16.607,0,33.619-11.686,34-34.02c-0.156-9.188-3.175-17.184-8.729-23.089	c-0.378-0.402-0.359-1.035,0.043-1.414c0.401-0.377,1.034-0.359,1.414,0.043c5.9,6.273,9.106,14.731,9.271,24.459	C83.597,71.642,65.584,84.003,48,84.003z"/><path fill="#0fd2ff" d="M56.77,68.682c-1.033,0-2.214-0.445-3.572-1.343c-0.366-0.241-1.052-0.689-1.909-1.25	c-2.788-1.821-7.454-4.87-8.782-5.819l-0.185-0.131c-1.07-0.76-2.403-1.706-2.525-3.252c-0.083-1.063,0.433-2.125,1.579-3.247	c0.268-0.262,0.914-0.956,1.815-1.92c2.366-2.534,6.326-6.774,9.869-10.154c0.398-0.381,1.033-0.366,1.414,0.033	c0.381,0.4,0.366,1.033-0.033,1.414c-3.501,3.34-7.437,7.554-9.788,10.072c-0.932,0.998-1.603,1.714-1.879,1.985	c-0.677,0.662-1.017,1.236-0.983,1.66c0.049,0.614,0.92,1.233,1.689,1.779l0.189,0.135c1.294,0.925,5.938,3.959,8.713,5.772	c0.861,0.563,1.55,1.012,1.917,1.254c1.329,0.878,2.326,1.188,2.958,0.918c0.754-0.32,1.356-1.587,1.742-3.664	c1.077-5.794,2.331-13.943,3.246-19.894c0.395-2.569,0.719-4.676,0.925-5.913c0.455-2.736,0.079-3.498-0.186-3.708	c-0.59-0.47-2.451-0.063-5.531,1.214l-0.242,0.101c-7.259,3.013-21.086,8.792-32.146,13.659c-1.935,0.851-2.235,1.4-2.271,1.483l0,0	c0.034,0,0.295,0.332,1.492,0.742l0.246,0.085c0.986,0.341,3.039,1.05,5.123,1.648c2.702,0.776,4.075,0.338,5.663-0.74	c0.452-0.308,2.109-1.412,4.353-2.903c0.457-0.306,1.079-0.182,1.387,0.279c0.306,0.46,0.181,1.081-0.279,1.386	c-2.235,1.487-3.885,2.586-4.337,2.893c-1.934,1.315-3.921,1.992-7.339,1.008c-2.134-0.613-4.221-1.333-5.224-1.68l-0.242-0.083	c-0.686-0.234-2.774-0.95-2.843-2.573c-0.069-1.628,1.944-2.706,3.466-3.375c11.077-4.874,24.919-10.66,32.184-13.675l0.243-0.101	c3.535-1.467,6.03-2.136,7.542-0.933c1.438,1.141,1.269,3.472,0.914,5.602c-0.205,1.232-0.527,3.33-0.921,5.888	c-0.917,5.964-2.173,14.131-3.256,19.956c-0.537,2.886-1.467,4.519-2.927,5.139C57.643,68.597,57.22,68.682,56.77,68.682z"/></svg>
